Inverse Dynamics Generalized Forces
version=1
nRows=15
nColumns=34
inDegrees=no
endheader 
time	pelvis_tilt_moment	pelvis_list_moment	pelvis_rotation_moment	pelvis_tx_force	pelvis_ty_force	pelvis_tz_force	hip_flexion_l_moment	hip_adduction_l_moment	hip_rotation_l_moment	hip_flexion_r_moment	hip_adduction_r_moment	hip_rotation_r_moment	knee_angle_l_moment	knee_angle_r_moment	ankle_angle_l_moment	ankle_angle_r_moment	subtalar_angle_l_moment	subtalar_angle_r_moment	mtp_angle_l_moment	mtp_angle_r_moment	lumbar_extension_moment	lumbar_bending_moment	lumbar_rotation_moment	arm_flex_l_moment	arm_add_l_moment	arm_rot_l_moment	arm_flex_r_moment	arm_add_r_moment	arm_rot_r_moment	elbow_flex_l_moment	elbow_flex_r_moment	pro_sup_l_moment	pro_sup_r_moment	
          6.45500000	          0.00000003	          0.00000000	          0.00000004	         -0.00000003	          0.00000002	          0.00000002	        -22.63168393	         83.88189753	        -25.90933679	         16.58235491	        -72.74134286	         23.03016328	         66.23517063	         23.22673347	          1.45070415	          0.54226726	          1.92504101	         -1.20965223	         -0.34390560	          0.06641976	        -61.44428785	        123.65377354	        -96.84647195	         25.16420429	        -13.48808975	          0.97377802	        -94.41059065	        -22.82270343	         28.63643718	        -20.48159370	         -5.59085302	          0.42968826	          0.55629039	
          6.47526316	         -0.00000003	          0.00000001	         -0.00000005	          0.00000007	          0.00000000	         -0.00000002	        -29.88364759	         -0.25828111	         15.76942369	         87.25007299	        -15.55866632	        -22.57018738	         29.21409584	        -59.35871840	          1.39967249	         10.89003184	         -0.96648691	         -6.10884359	         -0.15943796	         -0.82719623	        -23.93971616	        -62.54598402	         77.57122848	         39.23241836	         31.03265702	         -0.48957900	       -104.19538380	        -16.33374437	         33.18400041	        -10.58872607	        -18.87964261	          0.40041230	          0.72046231	
          6.49552632	         -0.00000001	         -0.00000001	          0.00000000	          0.00000000	         -0.00000001	          0.00000001	       -117.87679353	         32.50539463	          2.07781922	        217.05940894	         -4.51117256	          1.59277859	         88.79700760	        -80.40401549	          0.77112840	         11.55788330	         -0.05533704	         -2.56093900	         -0.30120774	         -0.65146558	       -113.35849089	        -17.23084368	        -88.37482363	         40.75680159	        -48.82285477	         -1.03398938	       -108.72249653	         -8.87359481	         44.61270498	        -25.82979889	        -14.12291512	          0.15433749	          0.65254297	
          6.51578947	         -0.00000002	          0.00000003	         -0.00000002	          0.00000003	          0.00000003	         -0.00000001	       -265.75822898	         -6.93087452	         33.81855653	        280.43511353	         52.64530326	        -14.10375484	        122.99368065	       -107.60312658	         -2.52337783	         18.80567732	         -2.04719528	         -0.78155787	          0.00282556	         -1.37288676	          4.77812643	        -77.09727327	       -151.11331916	         56.24567718	        -77.03301498	         -4.96266980	        -52.14494211	         25.63604660	         44.63227094	        -34.23183186	         11.49015781	         -1.00060093	          0.37291581	
          6.53605263	          0.00000007	          0.00000000	          0.00000002	         -0.00000004	         -0.00000006	         -0.00000000	       -285.82978334	          5.73351440	         28.95414903	        213.27339846	         90.91536525	         -0.55744640	        108.43618470	        -37.98963660	         -2.82822098	          5.25381894	         -2.02929304	          2.88918531	          0.05228089	         -0.36643563	         79.49605139	       -120.90269388	       -216.55039428	         47.40691554	        -44.81264088	         -4.93853366	        -16.24289450	        -13.92207422	         13.95469980	        -18.84029492	         17.73033239	         -0.73510541	          0.04374841	
          6.55631579	         -0.00000001	          0.00000003	          0.00000004	         -0.00000007	          0.00000016	         -0.00000003	       -133.32828669	        -12.87907218	         25.93039917	        232.77471243	          3.24937790	         -7.62902783	         -5.93599686	        -80.36751984	         -0.07278430	         11.43115230	         -1.84261629	         -2.85452207	         -0.08626565	         -0.57839958	        -53.08855625	         42.76826939	        -71.52082621	         19.19669606	          5.07794154	         -1.22018875	         57.13626589	          3.07455969	        -33.69883820	          4.76340264	         21.45322330	          0.71424847	         -1.01573920	
          6.57657895	         -0.00000005	          0.00000008	          0.00000012	         -0.00000024	          0.00000045	          0.00000003	        -45.04468059	        -14.69689080	         18.94843267	        185.76043811	        -35.72265409	         -2.13893693	        -53.06018456	        -65.28751521	         -2.73695359	         10.19443016	         -1.00117393	         -3.92304307	          0.12501123	         -0.42106492	        -73.90744522	        155.82399690	          1.35598597	         48.84828126	        -10.25058529	         -4.92970490	         98.31529637	         67.48165819	        -55.91909835	          5.70356263	         27.78482370	          0.92127591	         -2.00141093	
          6.59684211	         -0.00000003	          0.00000006	         -0.00000009	          0.00000029	          0.00000004	         -0.00000010	        -35.91013624	         12.07452206	         -0.30460258	         78.96232583	        -26.74337264	          6.88669064	        -27.93667777	          0.71869665	         -5.45044801	          7.76267623	          0.02069516	         -3.24124200	          0.35402817	         -0.44075160	        -22.29957299	        169.70133516	          7.40423390	         44.70646853	        -41.95568401	        -11.79412762	          7.47719735	         59.36319896	        -14.68921807	          5.83331361	         34.85399054	          0.38889562	         -0.54810755	
          6.61710526	         -0.00000001	          0.00000004	         -0.00000001	          0.00000005	          0.00000002	          0.00000001	         21.42105152	         20.58228788	         -3.29136923	        101.93605485	        -21.04317449	         14.05384977	        -18.28327304	        -35.09863683	         -4.39299485	         12.64389295	          0.04060187	         -4.46711716	          0.41456394	         -0.83482532	       -132.78123267	        133.02671991	         58.18473057	        -15.02796808	        -27.88292802	          0.48426636	        -61.20098078	         14.87693955	         10.70219246	          3.22693366	         26.82484981	          0.32613358	          1.52067988	
          6.63736842	          0.00000002	          0.00000000	          0.00000000	          0.00000003	         -0.00000001	         -0.00000002	         -2.01495703	         89.90066758	        -15.16460301	         67.83619867	         26.41787339	         13.03265533	         20.20015987	        -42.05746045	         -0.85851027	          2.81696388	          1.57920610	         -0.65635640	          0.22543507	         -0.18850484	        -92.48026978	         76.00304811	         10.17153624	        -29.42948313	          9.42044763	         23.05907873	        -19.12779694	         35.98618401	          6.51736191	          3.53613225	         23.24107156	          0.39597692	          1.14954655	
          6.65763158	         -0.00000008	         -0.00000001	          0.00000001	          0.00000001	         -0.00000003	          0.00000002	         59.79837648	        216.73943617	        -27.23522479	         10.69908799	         36.67575634	          4.26622955	         11.46612544	        -61.38374736	          2.87747418	         -5.40066231	          5.08952287	          3.15485144	         -0.10462734	          0.30461662	        -77.86625694	        174.45177899	         58.29126724	        -65.98865570	        -10.28886504	         33.90785196	         56.05402651	         39.18835546	         -2.73910649	        -10.83362787	         29.23626636	          0.80566331	         -0.05312028	
          6.67789474	          0.00000001	          0.00000006	         -0.00000002	         -0.00000001	          0.00000009	         -0.00000000	         74.57379720	        282.29589454	        -17.93506978	        -91.29744529	         62.47193092	         -6.82971815	          9.72443709	        -21.24137411	          4.81631813	         -6.68747993	          7.79246461	          3.75783828	         -0.36757982	          0.34035343	         23.94948957	        229.63138529	         97.80646459	        -94.87557907	        -35.64823242	         38.01819273	         96.03309725	         -4.65855135	        -16.92897689	        -25.59090521	         28.50141611	          1.53420567	         -1.23773274	
          6.69815789	          0.00000001	         -0.00000005	          0.00000001	         -0.00000002	         -0.00000001	         -0.00000005	         71.86370179	        279.95750258	         -7.20744407	       -127.71844927	         79.91046296	        -11.21516365	          8.30681007	         29.12257235	          4.17906765	         -1.43308727	          7.89905329	          1.30119294	         -0.32745883	          0.07301951	         59.04790189	        260.55904368	        114.13857973	       -107.47027280	        -60.46651429	         33.85507781	        120.17656443	        -54.70318432	        -35.32656878	        -38.68167817	         22.82400574	          1.81977245	         -2.11531384	
          6.71842105	          0.00000004	         -0.00000000	         -0.00000002	          0.00000002	         -0.00000004	          0.00000001	         39.68554339	        268.11175418	          0.59301821	       -141.28081745	         77.18304057	         -3.09700272	         27.25605117	         49.71069204	          0.79824645	          2.31604177	          7.57082321	         -1.11041658	          0.02193466	         -0.10719397	         79.19572937	        277.89370997	        105.79281252	        -95.77582198	        -73.04725454	         18.58438227	        132.97038948	        -38.70677670	        -19.14558597	        -42.46677456	         32.06286455	          1.31612558	         -1.41836252	
          6.73868421	         -0.00000001	          0.00000001	          0.00000000	          0.00000001	          0.00000001	         -0.00000001	         41.98101497	        197.74680187	          2.94107346	       -194.12527632	        -13.08783424	         53.73494478	         30.72676004	         71.09332787	         -1.31823578	          4.84069143	          5.85469224	         -5.83581362	          0.30652102	         -0.14889766	        137.42817431	        267.51212515	        191.14866480	        -81.48016367	        -72.83939657	          6.94318375	        139.57969734	         -5.53461715	         17.31018494	        -37.93720008	         53.36273135	          0.66172225	         -0.26237545	
